<svg xmlns="http://www.w3.org/2000/svg" width="353" height="803" viewBox="0 0 353 803"><g transform="translate(-1567 -150)" opacity="0.384" style="mix-blend-mode:overlay;isolation:isolate"><g transform="translate(1282 830) rotate(-90)" style="mix-blend-mode:overlay;isolation:isolate"><rect width="53" height="107" transform="translate(520 423)" fill="#fff"/><rect width="53" height="107" transform="translate(627 530)" fill="#fff"/><rect width="53" height="55" transform="translate(520 583)" fill="#fff"/><rect width="53" height="55" transform="translate(574 530)" fill="#fff"/><rect width="53" height="55" transform="translate(467 530)" fill="#fff"/></g><g transform="translate(2386 947) rotate(180)" style="mix-blend-mode:overlay;isolation:isolate"><rect width="53" height="107" transform="translate(520 423)" fill="#fff"/><rect width="53" height="107" transform="translate(627 530)" fill="#fff"/><rect width="53" height="55" transform="translate(520 583)" fill="#fff"/><rect width="53" height="55" transform="translate(574 530)" fill="#fff"/><rect width="53" height="55" transform="translate(467 530)" fill="#fff"/></g><g transform="translate(2387 1105) rotate(180)" style="mix-blend-mode:overlay;isolation:isolate"><rect width="53" height="107" transform="translate(520 423)" fill="#fff"/><rect width="53" height="107" transform="translate(627 530)" fill="#fff"/><rect width="53" height="55" transform="translate(520 583)" fill="#fff"/><rect width="53" height="55" transform="translate(574 530)" fill="#fff"/><rect width="53" height="55" transform="translate(467 530)" fill="#fff"/></g><g transform="translate(2247 1213) rotate(180)" style="mix-blend-mode:overlay;isolation:isolate"><rect width="53" height="107" transform="translate(520 423)" fill="#fff"/><rect width="53" height="107" transform="translate(627 530)" fill="#fff"/><rect width="53" height="55" transform="translate(520 583)" fill="#fff"/><rect width="53" height="55" transform="translate(574 530)" fill="#fff"/><rect width="53" height="55" transform="translate(467 530)" fill="#fff"/></g><g transform="translate(2353 1376) rotate(180)" style="mix-blend-mode:overlay;isolation:isolate"><rect width="53" height="107" transform="translate(520 423)" fill="#fff"/><rect width="53" height="107" transform="translate(627 530)" fill="#fff"/><rect width="53" height="55" transform="translate(520 583)" fill="#fff"/><rect width="53" height="55" transform="translate(574 530)" fill="#fff"/><rect width="53" height="55" transform="translate(467 530)" fill="#fff"/></g></g></svg>